<svg width="85" height="82" viewBox="0 0 85 82" fill="currentColor" xmlns="http://www.w3.org/2000/svg">
<path d="M2.79466 2.93596C2.72084 3.06179 2.92121 6.07125 3.05831 6.79478C3.11104 7.06742 3.30086 8.08455 3.4696 9.04926C3.64888 10.014 3.84925 10.9053 3.91253 11.0311C3.9758 11.1464 4.12345 11.6288 4.2289 12.1007C4.34491 12.562 4.5031 13.0863 4.58747 13.2646C4.67183 13.4324 4.81948 13.8623 4.91439 14.2083C5.01985 14.5544 5.13585 14.8899 5.18858 14.9528C5.23077 15.0158 5.36786 15.3408 5.48387 15.6764C5.59987 16.0119 5.73697 16.337 5.7897 16.3999C5.84243 16.4628 5.96898 16.725 6.06389 16.9871C6.26426 17.5114 7.52977 20.07 8.04652 20.9927C8.23635 21.3178 8.51054 21.8211 8.66873 22.1147C8.82692 22.3979 9.0062 22.66 9.06948 22.7019C9.13275 22.7334 9.26985 22.9431 9.38585 23.1528C9.50186 23.3626 9.76551 23.7505 9.95533 24.0127C10.1557 24.2748 10.5881 24.8725 10.9045 25.3444C11.2314 25.8163 11.5372 26.2147 11.5794 26.2357C11.6216 26.2567 11.843 26.4979 12.0751 26.7915C13.889 29.0774 17.1687 32.2022 19.1408 33.5549C19.3517 33.7017 19.7419 33.9953 20.0161 34.205C20.2903 34.4252 20.5645 34.6035 20.6278 34.6035C20.6911 34.6035 20.8071 34.6769 20.8914 34.7713C20.9653 34.8551 21.2078 35.0334 21.4293 35.1592C21.6613 35.2851 22.1148 35.5367 22.4417 35.7255C23.0428 36.0505 24.8672 36.9628 25.6793 37.3298C26.5862 37.7388 28.3685 38.2736 29.4758 38.4728C30.1191 38.5881 30.794 38.7244 30.9839 38.7769C31.2792 38.8713 31.3319 38.8608 31.4479 38.6615C31.6166 38.3679 31.701 33.3347 31.701 24.6418C31.6904 18.4027 31.6904 18.2769 31.4479 17.2597C31.3108 16.683 31.121 16.0224 31.0155 15.7917C30.91 15.5505 30.7835 15.2464 30.7413 15.0996C30.6569 14.806 29.8449 13.2961 29.7289 13.2122C29.6973 13.1807 29.5918 13.0129 29.4969 12.8347C29.2649 12.3838 27.9466 10.8004 27.2506 10.1293C26.3648 9.27995 25.1731 8.29427 24.4138 7.80143C23.1588 6.99401 20.0899 5.59938 19.0881 5.40015C18.8877 5.35821 18.6662 5.27432 18.5924 5.22189C18.5292 5.16946 18.0757 5.03314 17.5906 4.92828C17.1055 4.81294 16.6414 4.67662 16.5571 4.63468C16.4727 4.58225 15.8083 4.43544 15.0806 4.30961C14.353 4.18378 13.678 4.03698 13.5831 3.98455C13.3933 3.87969 10.8623 3.52317 9.43858 3.40783C8.97456 3.36588 8.55273 3.29248 8.48945 3.25053C8.39454 3.17713 7.57196 3.11422 3.77543 2.88353C3.19541 2.84158 2.83685 2.86256 2.79466 2.93596Z" fill="#42B2FC"/>
<path d="M79.727 2.94644C78.9467 2.99887 77.9448 3.08276 77.5124 3.14567C77.08 3.1981 76.1731 3.31345 75.5087 3.39734C73.178 3.69094 71.9231 3.87969 71.7333 3.98455C71.6383 4.03698 71.0794 4.15232 70.4994 4.2467C69.9194 4.34107 69.1601 4.49836 68.812 4.60322C68.464 4.70808 67.9156 4.85488 67.5993 4.92828C67.2829 5.00168 66.8821 5.11703 66.7029 5.19043C66.5341 5.26383 66.0596 5.43161 65.6483 5.55744C65.2475 5.68327 64.8679 5.81959 64.8046 5.87202C64.7519 5.91396 64.4355 6.0293 64.1191 6.13416C63.8027 6.23903 63.4653 6.38583 63.3703 6.45923C63.286 6.54311 63.1594 6.60603 63.0962 6.60603C63.0434 6.60603 62.7798 6.72137 62.5267 6.85769C62.2736 7.0045 61.8096 7.24567 61.5143 7.40296C61.2084 7.56025 60.8815 7.76997 60.7866 7.88531C60.6811 7.99018 60.5651 8.07406 60.5124 8.07406C60.428 8.07406 59.7426 8.60884 58.6458 9.53161C57.9708 10.0978 56.2097 12.0377 56.2097 12.216C56.2097 12.2894 56.1148 12.4257 55.9988 12.5306C55.8828 12.6354 55.7246 12.8452 55.6402 12.992C55.5664 13.1388 55.2816 13.6526 55.018 14.1244C54.7543 14.5963 54.4274 15.3198 54.3009 15.7498C54.1743 16.1692 54.0372 16.5677 53.9845 16.6306C53.8685 16.7669 53.6892 18.0147 53.6576 18.8746C53.647 19.2521 53.647 23.8869 53.6576 29.1718L53.6787 38.7979H53.9845C54.1638 38.7979 54.322 38.7559 54.3536 38.7035C54.3852 38.6615 54.7122 38.5881 55.0707 38.5462C55.9882 38.4518 57.6545 38.1163 57.8127 37.9799C57.8865 37.9275 58.2239 37.8017 58.572 37.7073C58.9094 37.6025 59.3629 37.4347 59.5738 37.3193C59.7742 37.2145 59.9851 37.1201 60.0273 37.1201C60.1222 37.1201 61.8517 36.2707 62.6638 35.8198C63.9609 35.1068 64.1086 35.0229 64.1718 34.9181C64.214 34.8551 64.4566 34.6874 64.7308 34.5406C65.005 34.4042 65.3952 34.1526 65.6061 33.9953C66.7134 33.1669 66.8716 33.0516 68.1793 31.9505C68.8015 31.4367 72.1445 28.1127 72.6402 27.5255C72.83 27.2948 73.3151 26.6761 73.7264 26.1623C74.1272 25.638 74.549 25.1242 74.6439 25.0088C74.8127 24.8306 75.2134 24.2539 75.8251 23.3416C75.9094 23.2053 76.0782 22.9641 76.1836 22.7963C76.5527 22.251 77.0484 21.4436 77.1855 21.1815C77.2593 21.0347 77.4808 20.6362 77.6706 20.2902C78.1452 19.4408 79.0943 17.5429 79.0943 17.4485C79.0943 17.4065 79.1576 17.2912 79.2419 17.2073C79.3158 17.1129 79.5056 16.6725 79.6638 16.2216C79.8114 15.7707 80.0118 15.2989 80.0856 15.173C80.17 15.0472 80.2649 14.7746 80.3071 14.5753C80.3493 14.3761 80.4864 13.9672 80.6235 13.684C80.75 13.3904 80.8976 12.95 80.9398 12.6879C80.982 12.4257 81.0875 12.0902 81.1613 11.9329C81.2984 11.6707 81.5831 10.5278 81.9944 8.54593C82.3002 7.11984 82.7115 3.26102 82.6061 2.95692C82.5428 2.81012 81.9628 2.81012 79.727 2.94644Z" fill="#42B2FC"/>
<path d="M40.8127 13.4953C40.665 13.5268 40.5068 13.5792 40.4436 13.6212C40.3908 13.6631 40.0534 13.7889 39.7053 13.8938C39.0199 14.1035 37.7543 14.7536 37.7543 14.89C37.7543 14.9424 37.67 15.0053 37.554 15.0473C37.3009 15.1207 36.2146 16.2007 35.7823 16.8194C35.5924 17.071 35.3604 17.4905 35.255 17.7421C35.1601 17.9938 35.044 18.2245 34.9913 18.2559C34.7909 18.3923 34.232 21.1396 34.3058 21.6324C34.4324 22.4608 34.8226 23.9918 35.0019 24.3797C35.1179 24.6104 35.255 24.925 35.3182 25.0823C35.5608 25.7219 36.7419 27.0327 37.7227 27.7457C38.2289 28.1127 39.157 28.5846 39.6526 28.7209C39.9163 28.7943 40.2959 28.9306 40.4963 29.0145C40.7494 29.1089 41.3294 29.1613 42.2891 29.1823C43.5968 29.1928 43.7866 29.1718 44.6092 28.8992C46.1805 28.3749 46.8344 27.9659 47.9944 26.8334C48.5639 26.2672 49.0385 25.7429 49.0385 25.6695C49.0385 25.6066 49.1228 25.4493 49.2283 25.334C49.3338 25.2081 49.513 24.8726 49.6079 24.5895C49.7134 24.2958 49.861 23.9184 49.9454 23.7506C50.2723 23.048 50.3883 21.171 50.1985 19.9232C50.072 19.1787 49.5869 17.8889 49.1861 17.2808C49.049 17.0605 48.933 16.8508 48.933 16.7984C48.933 16.704 47.5515 15.2884 47.1191 14.9424C46.982 14.827 46.6762 14.6383 46.4442 14.523C46.2227 14.4076 45.9591 14.2503 45.8536 14.1769C45.7587 14.1035 45.4107 13.9672 45.0627 13.8728C44.7252 13.7889 44.3877 13.6631 44.3034 13.6002C44.1557 13.4744 41.3294 13.3905 40.8127 13.4953Z" fill="#42B2FC"/>
<path d="M53.8369 43.2753C53.647 44.3448 53.3623 45.5297 53.1197 46.1904C52.4026 48.1512 51.0422 49.9653 49.5341 50.9719C48.7537 51.4962 47.5937 52.073 47.0137 52.2303C46.7606 52.2932 46.4653 52.3875 46.3493 52.4295C45.3263 52.8489 40.7916 52.8489 39.9163 52.4295C39.8003 52.3771 39.4311 52.2617 39.1042 52.1778C38.7668 52.0939 38.366 51.9471 38.2078 51.8633C38.0391 51.7794 37.7122 51.6221 37.4696 51.5067C36.6365 51.1083 35.023 49.7346 34.348 48.8538C33.9156 48.2771 33.3989 47.4172 33.2407 47.0292C33.1563 46.7985 33.0192 46.5364 32.9454 46.4525C32.8083 46.2847 32.3548 44.8691 32.0912 43.7471C32.0068 43.3906 31.8803 43.097 31.8275 43.097C31.7643 43.097 31.5428 43.2438 31.3319 43.4116C30.5093 44.0932 30.2984 44.2609 29.7395 44.6594C29.4231 44.8901 28.8536 45.3095 28.4739 45.6031C28.0943 45.8968 27.5143 46.3477 27.1873 46.6098C26.8499 46.8719 26.5546 47.0817 26.523 47.0817C26.5019 47.0817 26.3648 47.176 26.2382 47.3019C25.7953 47.6898 24.6352 48.6021 24.1712 48.9062C23.781 49.1684 23.7283 49.2523 23.781 49.4829C23.8127 49.6193 23.9392 49.8604 24.0552 49.9968C24.1607 50.1436 24.2556 50.3218 24.2556 50.4057C24.2556 50.542 25.0676 52.1044 25.1942 52.2198C25.2258 52.2512 25.3524 52.461 25.4684 52.6916C25.5844 52.9118 25.8691 53.3313 26.1011 53.6144C26.3331 53.908 26.639 54.3274 26.7866 54.5686C27.0713 55.051 27.0924 55.0615 28.5478 56.561C29.0962 57.1377 29.6867 57.7039 29.8449 57.8193C30.8362 58.5533 31.0788 58.7315 31.2159 58.8574C31.3635 58.9937 31.9225 59.3607 32.956 59.9899C34.0844 60.6819 35.951 61.4264 37.438 61.7725C37.9336 61.8878 38.482 62.0241 38.6507 62.0766C40.2115 62.5589 46.6445 62.5799 47.2878 62.0975C47.3511 62.0451 47.7413 61.9507 48.1421 61.8773C48.5534 61.7934 49.2388 61.6047 49.6712 61.4474C50.1036 61.2796 50.5676 61.1223 50.6942 61.0804C50.9895 60.9965 52.6452 60.1681 53.1619 59.843C56.1464 57.9975 58.4454 55.7221 60.3542 52.7441C60.7339 52.1673 61.3244 51.0453 61.4826 50.6469C61.567 50.4477 61.7146 50.1645 61.8201 50.0177C61.9256 49.8709 62.0416 49.6088 62.0732 49.42C62.1259 49.1474 62.0943 49.074 61.8939 48.9691C61.7674 48.8957 61.4088 48.6441 61.1135 48.4029C60.8182 48.1722 60.2277 47.7108 59.8058 47.3962C59.384 47.0817 58.92 46.7147 58.7723 46.5783C58.6247 46.4525 58.4665 46.3477 58.4349 46.3477C58.4032 46.3477 58.1607 46.1589 57.897 45.9282C57.6334 45.6975 57.3908 45.5088 57.3486 45.5088C57.2854 45.5088 55.9566 44.4602 55.4926 44.0512C55.366 43.9254 55.2289 43.831 55.1973 43.831C55.1551 43.831 54.9125 43.6528 54.6383 43.4326C53.9107 42.8349 53.9107 42.8349 53.8369 43.2753Z" fill="#42B2FC"/>
<path d="M65.0366 65.0966C63.5813 65.1281 63.5813 65.1281 63.6551 65.3588C63.6973 65.4846 63.7605 65.6104 63.7922 65.6419C63.8344 65.6733 63.9504 65.925 64.0558 66.2186C64.1613 66.5017 64.3195 66.8163 64.3933 66.9107C64.4777 67.0051 64.6148 67.3091 64.7097 67.5923C64.8046 67.8754 64.9522 68.1795 65.026 68.2634C65.0999 68.3473 65.2897 68.7457 65.4479 69.1547C65.6061 69.5531 65.7959 69.9621 65.8592 70.046C65.933 70.1299 66.0279 70.3186 66.0701 70.4654C66.1123 70.6122 66.3337 71.126 66.5657 71.6189C66.7978 72.1117 67.093 72.7409 67.2301 73.0345C67.536 73.7161 67.6731 73.9887 67.9367 74.5025C68.0527 74.7332 68.1793 75.1107 68.2109 75.3519C68.2531 75.7189 68.2109 75.8342 67.9156 76.1593C67.4832 76.6626 66.9665 76.7989 65.7854 76.7255L64.8573 76.6836L64.8468 77.0611C64.8257 77.4281 64.8362 78.7388 64.8468 79.0744C64.8573 79.1583 65.0366 79.3051 65.2581 79.3994C65.7432 79.6091 67.5571 79.7245 68.3375 79.5987C69.6979 79.3785 70.7419 78.7178 71.1743 77.8056C71.3009 77.5434 71.4485 77.2603 71.5012 77.1764C71.6594 76.9247 72.4504 75.1946 72.4504 75.0792C72.4504 75.0268 72.6402 74.5864 72.8722 74.0935C73.1042 73.6007 73.294 73.1393 73.294 73.0659C73.294 72.982 73.3573 72.8352 73.4417 72.7199C73.5155 72.6045 73.6842 72.2375 73.8002 71.9125C73.9268 71.5769 74.0744 71.2204 74.1377 71.126C74.2432 70.9373 74.6861 69.8887 75.1185 68.7877C75.2345 68.4731 75.3716 68.19 75.4138 68.1585C75.4454 68.1271 75.5192 67.9907 75.5614 67.8439C75.6036 67.6971 75.7512 67.3406 75.8883 67.0575C76.2047 66.3654 76.5633 65.4112 76.5633 65.2434C76.5633 65.149 76.0782 65.1176 74.4752 65.1176H72.3765L72.2605 65.3797C72.1973 65.5161 72.0707 65.925 71.9758 66.2815C71.8809 66.638 71.7438 67.026 71.67 67.1519C71.5856 67.2672 71.4696 67.6342 71.3958 67.9488C71.322 68.2634 71.1849 68.7038 71.0794 68.9135C70.9739 69.1232 70.8157 69.637 70.7103 70.046C70.4361 71.147 70.1408 71.168 69.9193 70.0984C69.8561 69.8048 69.7401 69.4483 69.6662 69.291C69.5819 69.1337 69.3921 68.5675 69.2339 68.0327C69.0757 67.4979 68.9069 67.0051 68.8648 66.9526C68.812 66.8897 68.7171 66.6066 68.6433 66.3235C68.5695 66.0299 68.4535 65.6524 68.3691 65.4636C68.232 65.1386 68.232 65.1386 67.3672 65.0966C66.8821 65.0756 65.8381 65.0756 65.0366 65.0966Z" fill="#42B2FC"/>
<path d="M12.4231 66.4493C12.402 67.1938 12.402 70.4025 12.4231 73.5902L12.4442 79.3994L17.0105 79.347C19.7314 79.3155 21.8617 79.2526 22.3046 79.1792C24.7301 78.7807 26.0906 76.6836 25.4684 74.2928C25.3734 73.9467 25.1942 73.5168 25.0676 73.3281C24.7407 72.8667 24.0236 72.3634 23.3697 72.1431C22.737 71.9334 22.6842 71.7447 23.201 71.493C23.6756 71.2518 24.4138 70.5598 24.6247 70.1403C24.8462 69.7209 24.9516 68.1375 24.7934 67.5608C24.4981 66.5017 23.2115 65.4531 21.9249 65.2329C21.4926 65.1595 19.5943 65.1176 16.8418 65.1176H12.4547L12.4231 66.4493ZM19.6154 68.0012C20.1216 68.1061 20.322 68.2738 20.5645 68.7457C20.7965 69.1861 20.8282 69.4378 20.6805 69.7104C20.6278 69.8048 20.554 69.9726 20.5223 70.0669C20.4907 70.1613 20.2692 70.371 20.0161 70.5283C19.6048 70.7905 19.4466 70.8219 18.3288 70.8639C17.4324 70.8953 17.0422 70.8743 16.9262 70.78C16.7996 70.6751 16.768 70.3815 16.768 69.3434C16.768 68.1585 16.7891 68.0431 16.9684 67.9697C17.232 67.8754 19.1303 67.8963 19.6154 68.0012ZM20.3958 73.5483C20.9442 73.779 21.1973 74.1774 21.1973 74.838C21.1973 76.1278 20.5012 76.5472 18.3288 76.5472C17.6538 76.5472 17.0316 76.5158 16.9367 76.4843C16.7996 76.4319 16.768 76.2012 16.768 75.0373C16.768 74.104 16.8102 73.6112 16.8945 73.5273C17.0844 73.3385 19.9318 73.3595 20.3958 73.5483Z" fill="#42B2FC"/>
<path d="M51.2742 72.2165L51.3058 79.3259H53.415H55.5242L55.5769 73.9257L55.6297 68.5254L59.1098 68.473L62.59 68.4206L62.6216 66.7638L62.6532 65.1175H56.9479H51.2531L51.2742 72.2165Z" fill="#42B2FC"/>
<path d="M29.7816 69.2175C28.7692 69.3853 27.9783 70.0145 27.6303 70.9372C27.3877 71.5769 27.5354 73.0239 27.8834 73.4958C28.1998 73.9048 29.0329 74.6073 29.3387 74.7017C29.8133 74.859 29.8133 75.0268 29.3282 75.2889C28.9274 75.5196 28.5056 76.0649 28.1048 76.8618C27.9994 77.061 27.8623 77.3022 27.7885 77.3861C27.7146 77.47 27.5775 77.7636 27.4721 78.0467C27.3666 78.3193 27.2506 78.5395 27.219 78.5395C27.1452 78.5395 26.8921 79.1477 26.8921 79.305C26.8921 79.347 27.8306 79.3679 28.9696 79.3574L31.0577 79.326L31.7115 78.0677C32.0701 77.3756 32.4603 76.6206 32.5763 76.3899C32.8821 75.7608 33.4411 75.2679 33.8102 75.3099C34.1582 75.3413 34.1476 75.2889 34.1582 78.0886L34.1687 79.3784H36.067H37.9653V74.2403V69.1022L34.1476 69.1127C32.0385 69.1232 30.0769 69.1651 29.7816 69.2175ZM34.0105 72.1956V73.0344L33.2196 73.0554C31.8381 73.0973 31.2053 72.6989 31.3846 71.9019C31.4795 71.472 31.8803 71.3357 33.0403 71.3462L34.0105 71.3567V72.1956Z" fill="#42B2FC"/>
<path d="M39.5471 70.4654V71.8285H40.9498C41.8989 71.8285 42.3945 71.8705 42.4789 71.9544C42.5738 72.0487 42.6055 73.0344 42.6055 75.7293V79.3784H44.5037H46.402V75.7713C46.402 73.7894 46.4336 72.0907 46.4653 71.9963C46.518 71.8495 46.75 71.8285 47.9417 71.8285C48.9963 71.8285 49.3548 71.7971 49.3654 71.6922C49.4287 70.9268 49.4392 70.2032 49.3865 69.6999L49.3232 69.1022H44.4405H39.5471V70.4654Z" fill="#42B2FC"/>
</svg>
