<svg width="24" height="22" viewBox="0 0 24 22" fill="none" xmlns="http://www.w3.org/2000/svg">
<path d="M1.3125 16.925C0.829167 16.7167 0.683333 16.3708 0.875 15.8875L6.9875 1.225C7.1625 0.816665 7.45833 0.612499 7.875 0.612499H7.9375C8.34583 0.620832 8.62917 0.824999 8.7875 1.225L14.9375 15.8875C15.1458 16.3708 15.0042 16.7167 14.5125 16.925C14.0292 17.1167 13.6875 16.975 13.4875 16.5L11.9375 12.7875H3.875L2.3375 16.5C2.14583 16.9833 1.80417 17.125 1.3125 16.925ZM4.5125 11.2125H11.275L7.875 3.1L4.5125 11.2125ZM19.5684 22C18.7484 22 18.1409 21.8025 17.7459 21.4075C17.3509 21.0125 17.1534 20.405 17.1534 19.585C17.1534 18.765 17.3484 18.1575 17.7384 17.7625C18.1334 17.3675 18.7434 17.17 19.5684 17.17H22.8159C22.7959 16.6 22.6559 16.2075 22.3959 15.9925C22.1359 15.7775 21.6934 15.67 21.0684 15.67H20.1984C19.6534 15.67 19.2484 15.715 18.9834 15.805C18.7234 15.895 18.5484 16.0525 18.4584 16.2775C18.3884 16.4575 18.3109 16.585 18.2259 16.66C18.1459 16.73 18.0209 16.765 17.8509 16.765C17.6659 16.765 17.5209 16.715 17.4159 16.615C17.3159 16.51 17.2859 16.3725 17.3259 16.2025C17.4459 15.6375 17.7409 15.225 18.2109 14.965C18.6809 14.7 19.3434 14.5675 20.1984 14.5675H21.0684C22.0434 14.5675 22.7634 14.8 23.2284 15.265C23.6934 15.73 23.9259 16.45 23.9259 17.425V21.445C23.9259 21.815 23.7434 22 23.3784 22C23.0084 22 22.8234 21.815 22.8234 21.445V20.9725C22.3084 21.6575 21.5034 22 20.4084 22H19.5684ZM19.5684 20.8975H20.4084C20.8134 20.8975 21.1859 20.8575 21.5259 20.7775C21.8659 20.6975 22.1509 20.5575 22.3809 20.3575C22.6109 20.1575 22.7584 19.8775 22.8234 19.5175V18.2725H19.5684C19.0534 18.2725 18.7059 18.365 18.5259 18.55C18.3459 18.73 18.2559 19.075 18.2559 19.585C18.2559 20.1 18.3459 20.4475 18.5259 20.6275C18.7059 20.8075 19.0534 20.8975 19.5684 20.8975Z" fill="white"/>
</svg>
