<svg width="24" height="18" viewBox="0 0 24 18" fill="none" xmlns="http://www.w3.org/2000/svg">
<path d="M1.3125 16.925C0.829167 16.7167 0.683333 16.3708 0.875 15.8875L6.9875 1.225C7.1625 0.816665 7.45833 0.612499 7.875 0.612499H7.9375C8.34583 0.620832 8.62917 0.824999 8.7875 1.225L14.9375 15.8875C15.1458 16.3708 15.0042 16.7167 14.5125 16.925C14.0292 17.1167 13.6875 16.975 13.4875 16.5L11.9375 12.7875H3.875L2.3375 16.5C2.14583 16.9833 1.80417 17.125 1.3125 16.925ZM4.5125 11.2125H11.275L7.875 3.1L4.5125 11.2125ZM19.5684 9C18.7484 9 18.1409 8.8025 17.7459 8.4075C17.3509 8.0125 17.1534 7.405 17.1534 6.585C17.1534 5.765 17.3484 5.1575 17.7384 4.7625C18.1334 4.3675 18.7434 4.17 19.5684 4.17H22.8159C22.7959 3.6 22.6559 3.2075 22.3959 2.9925C22.1359 2.7775 21.6934 2.67 21.0684 2.67H20.1984C19.6534 2.67 19.2484 2.715 18.9834 2.805C18.7234 2.895 18.5484 3.0525 18.4584 3.2775C18.3884 3.4575 18.3109 3.585 18.2259 3.66C18.1459 3.73 18.0209 3.765 17.8509 3.765C17.6659 3.765 17.5209 3.715 17.4159 3.615C17.3159 3.51 17.2859 3.3725 17.3259 3.2025C17.4459 2.6375 17.7409 2.225 18.2109 1.965C18.6809 1.7 19.3434 1.5675 20.1984 1.5675H21.0684C22.0434 1.5675 22.7634 1.8 23.2284 2.265C23.6934 2.73 23.9259 3.45 23.9259 4.425V8.445C23.9259 8.815 23.7434 9 23.3784 9C23.0084 9 22.8234 8.815 22.8234 8.445V7.9725C22.3084 8.6575 21.5034 9 20.4084 9H19.5684ZM19.5684 7.8975H20.4084C20.8134 7.8975 21.1859 7.8575 21.5259 7.7775C21.8659 7.6975 22.1509 7.5575 22.3809 7.3575C22.6109 7.1575 22.7584 6.8775 22.8234 6.5175V5.2725H19.5684C19.0534 5.2725 18.7059 5.365 18.5259 5.55C18.3459 5.73 18.2559 6.075 18.2559 6.585C18.2559 7.1 18.3459 7.4475 18.5259 7.6275C18.7059 7.8075 19.0534 7.8975 19.5684 7.8975Z" fill="white"/>
</svg>
