<svg width="14" height="17" viewBox="0 0 14 17" fill="none" xmlns="http://www.w3.org/2000/svg">
<path d="M1.65 17C0.95 17 0.6 16.65 0.6 15.95V1.1C0.6 0.399999 0.95 0.0499992 1.65 0.0499992H8.175C9.5 0.0499992 10.5167 0.399999 11.225 1.1C11.9417 1.8 12.3 2.8 12.3 4.1V4.775C12.3 5.9 11.9458 6.77083 11.2375 7.3875C12.5625 8.12917 13.225 9.48333 13.225 11.45V12.3C13.225 13.8333 12.8167 15 12 15.8C11.1917 16.6 10.025 17 8.5 17H1.65ZM2.7 14.9H8.5C9.44167 14.9 10.1125 14.7 10.5125 14.3C10.9208 13.8917 11.125 13.225 11.125 12.3V11.45C11.125 10.525 10.9292 9.86667 10.5375 9.475C10.1458 9.075 9.46667 8.875 8.5 8.875H2.7V14.9ZM2.7 6.775H8.625C9.23333 6.775 9.64583 6.5875 9.8625 6.2125C10.0875 5.8375 10.2 5.35833 10.2 4.775V4.1C10.2 3.375 10.05 2.87083 9.75 2.5875C9.45 2.29583 8.925 2.15 8.175 2.15H2.7V6.775Z" fill="white"/>
</svg>
