<svg width="17" height="17" viewBox="0 0 17 17" fill="none" xmlns="http://www.w3.org/2000/svg">
<path d="M6.6 16.9875C5.13333 16.9875 4.025 16.6708 3.275 16.0375C2.53333 15.4042 2.1125 14.4125 2.0125 13.0625C1.99583 12.8042 2.05833 12.6042 2.2 12.4625C2.34167 12.3208 2.5375 12.25 2.7875 12.25C3.0375 12.25 3.225 12.3167 3.35 12.45C3.48333 12.5833 3.56667 12.775 3.6 13.025C3.65833 13.9167 3.9125 14.5375 4.3625 14.8875C4.8125 15.2375 5.55833 15.4125 6.6 15.4125H10.2C11.35 15.4125 12.1417 15.1958 12.575 14.7625C13.0167 14.3208 13.2375 13.5333 13.2375 12.4C13.2375 11.25 13.0125 10.4583 12.5625 10.025C12.1208 9.58333 11.3333 9.3625 10.2 9.3625H6.8875C5.37917 9.3625 4.27083 9.00833 3.5625 8.3C2.85417 7.58333 2.5 6.475 2.5 4.975C2.5 3.475 2.85 2.375 3.55 1.675C4.25833 0.966665 5.3625 0.612499 6.8625 0.612499H10.1875C11.5625 0.612499 12.6 0.912499 13.3 1.5125C14.0083 2.10417 14.4125 3.03333 14.5125 4.3C14.5375 4.55 14.4792 4.75 14.3375 4.9C14.1958 5.04167 13.9958 5.1125 13.7375 5.1125C13.4958 5.1125 13.3083 5.04583 13.175 4.9125C13.0417 4.77083 12.9625 4.57917 12.9375 4.3375C12.8708 3.52917 12.6292 2.97083 12.2125 2.6625C11.7958 2.34583 11.1208 2.1875 10.1875 2.1875H6.8625C5.79583 2.1875 5.0625 2.39167 4.6625 2.8C4.27083 3.2 4.075 3.925 4.075 4.975C4.075 6.025 4.275 6.75833 4.675 7.175C5.08333 7.58333 5.82083 7.7875 6.8875 7.7875H10.2C11.775 7.7875 12.9375 8.1625 13.6875 8.9125C14.4375 9.65417 14.8125 10.8167 14.8125 12.4C14.8125 13.975 14.4375 15.1333 13.6875 15.875C12.9458 16.6167 11.7833 16.9875 10.2 16.9875H6.6Z" fill="white"/>
<path d="M0 10.0875H16.8125V10.7125H0V10.0875Z" fill="white"/>
</svg>
