<svg width="19" height="20" viewBox="0 0 19 20" fill="none" xmlns="http://www.w3.org/2000/svg">
<path d="M7.6375 17C5.79583 17 4.44583 16.5708 3.5875 15.7125C2.72917 14.8542 2.3 13.5042 2.3 11.6625V1.4C2.3 1.15 2.36667 0.958332 2.5 0.825C2.64167 0.683332 2.8375 0.612499 3.0875 0.612499C3.3375 0.612499 3.52917 0.683332 3.6625 0.825C3.80417 0.958332 3.875 1.15 3.875 1.4V11.6625C3.875 12.5958 3.99167 13.3375 4.225 13.8875C4.46667 14.4375 4.8625 14.8333 5.4125 15.075C5.9625 15.3083 6.70417 15.425 7.6375 15.425H10.6375C11.5792 15.425 12.3208 15.3083 12.8625 15.075C13.4125 14.8333 13.8042 14.4375 14.0375 13.8875C14.2792 13.3375 14.4 12.5958 14.4 11.6625V1.4C14.4 1.15 14.4667 0.958332 14.6 0.825C14.7417 0.683332 14.9375 0.612499 15.1875 0.612499C15.4375 0.612499 15.6292 0.683332 15.7625 0.825C15.9042 0.958332 15.975 1.15 15.975 1.4V11.6625C15.975 13.5042 15.5458 14.8542 14.6875 15.7125C13.8375 16.5708 12.4875 17 10.6375 17H7.6375Z" fill="white"/>
<path d="M0 18.5625H18.275V19.1875H0V18.5625Z" fill="white"/>
</svg>
