<svg width="17" height="16" viewBox="0 0 17 16" fill="none" xmlns="http://www.w3.org/2000/svg">
<path d="M16.8538 15.1413L11.9955 10.2532C12.901 9.16875 13.4468 7.7735 13.4468 6.25C13.4468 2.79825 10.6485 0 7.19678 0C3.74503 0 0.946777 2.79825 0.946777 6.25C0.946777 9.70175 3.74503 12.5 7.19678 12.5C8.76503 12.5 10.1975 11.921 11.295 10.9665L16.1465 15.8485C16.3418 16.0438 16.6585 16.0438 16.8538 15.8485C17.0488 15.6532 17.0488 15.3367 16.8538 15.1413H16.8538ZM7.19678 11.5082C4.29278 11.5082 1.93853 9.154 1.93853 6.25C1.93853 3.346 4.29278 0.99175 7.19678 0.99175C10.1008 0.99175 12.455 3.346 12.455 6.25C12.455 9.154 10.1008 11.5082 7.19678 11.5082Z" fill="black"/>
</svg>
